,
.   http://www.scenetime.com/signup.php  ---&gt;  Hottest scene tracker on the net !!!  

    Join Now   http://www.scenetime.com/signup.php

    seed back for speed


 



...................................NFO:.................................................[align=center][IMG]http://i.imgur.com/LxeWh.jpg[/IMG]


Complete name : Larry Crowne [2011] Dvdrip - PRESTiGE.avi 
Format : AVI 
Format/Info : Audio Video Interleave 
File size : 701 MiB 
Duration : 1h 34mn 
Overall bit rate : 1 040 Kbps
IMDB: http://www.imdb.com/title/tt1583420/
Encoder:[color=#6600CC][b][i]Twisted[/i][/b][/color]
Source: larri kraun 2011 dvd ELEKTRI4KA


ID : 0 
Format : MPEG-4 Visual 
Format profile : Advanced Simple@L5 
Format settings, BVOP : 2 
Format settings, QPel : No 
Format settings, GMC : No warppoints 
Format settings, Matrix : Default (H.263) 
Muxing mode : Packed bitstream 
Codec ID : XVID 
Codec ID/Hint : XviD 
Duration : 1h 34mn 
Bit rate : 902 Kbps 
Width : 720 pixels 
Height : 400 pixels 
Display aspect ratio : 16:9 
Frame rate : 25.000 fps 
Color space : YUV 
Chroma subsampling : 4:2:0 
Bit depth : 8 bits 
Scan type : Progressive 
Compression mode : Lossy 
Bits/(Pixel*Frame) : 0.125 
Stream size : 608 MiB (87%) 
Writing library : XviD 63



ID : 1 
Format : MPEG Audio 
Format version : Version 1 
Format profile : Layer 3 
Mode : Joint stereo 
Mode extension : MS Stereo 
Codec ID : 55 
Codec ID/Hint : MP3 
Duration : 1h 34mn 
Bit rate mode : Constant 
Bit rate : 128 Kbps 
Channel(s) : 2 channels 
Sampling rate : 44.1 KHz 
Compression mode : Lossy 
Delay relative to video : 26ms 
Stream size : 86.3 MiB (12%) 
Alignment : Split accross interleaves 
Interleave, duration : 40 ms (1.00 video frame) 
Interleave, preload duration : 500 ms



After losing his job, a middle-aged man reinvents himself by going back to college. 


[IMG]http://i.imgur.com/IYCSZ.png[/IMG]
[IMG]http://i.imgur.com/ElNUr.png[/IMG]
[IMG]http://i.imgur.com/2cMbJ.png[/IMG]
[IMG]http://i.imgur.com/Ur6Qr.png[/IMG]



[color=#FF0000][b]WE DONT RELEASE EVERYTHING TO OTHERS SITES YOU WANT MORE OF OUR STUFF COME FIND US AT .......[/b][/color]
[color=#FF0000][b]WE ARE LOOKING FOR SUPPLIERS BLURAY CAM R5 PRE RETAIL DVD GOT SOMETHING WE MIGHT LIKE WHEN YOU FIND US TELL US.......[/b][/color]


Greets going out to

| Bigguy | DiLLoN | Thorn | Flawl3ss | Imagine | CTFX | BMB | akosipalos | HiTM4N | PA4U2C |


[img]http://i.imgur.com/YvsDx.png[/img][/align]